<svg width="350" height="86" viewBox="0 0 350 86" fill="none" xmlns="http://www.w3.org/2000/svg">
<mask id="mask0" style="mask-type:alpha" maskUnits="userSpaceOnUse" x="0" y="0" width="93" height="67">
<path fill-rule="evenodd" clip-rule="evenodd" d="M0.000976562 0.524902H92.5589V66.9171H0.000976562V0.524902Z" fill="white"/>
</mask>
<g mask="url(#mask0)">
<path fill-rule="evenodd" clip-rule="evenodd" d="M0.000976562 66.9168L5.55737 53.4479C6.21474 51.8382 7.62741 50.7919 9.41564 50.7919H55.2696C56.3082 50.8901 56.8708 50.5086 57.1552 49.6555L59.6977 42.2584C59.9795 41.5002 59.6977 41.1187 58.659 41.1187H26.6469C16.8546 41.1187 9.9829 35.0481 13.2781 25.9447L16.7624 15.6067C19.4918 7.35327 27.7751 0.524414 38.3243 0.524414H92.5589C90.9577 5.36364 89.8294 8.77781 88.3209 13.6155C87.6609 15.6067 86.342 16.5548 84.3652 16.5548H32.2975C31.2589 16.5548 30.8854 17.7862 31.6376 18.451L36.4418 22.8138L35.6875 25.1865C35.4031 25.9447 35.7818 26.323 36.7231 26.323H68.8295C78.527 26.323 85.4008 32.3936 82.1071 41.5002L78.6203 51.8382C75.609 59.8985 68.5482 66.9168 57.7178 66.9168H0.000976562Z" fill="white"/>
</g>
<mask id="mask1" style="mask-type:alpha" maskUnits="userSpaceOnUse" x="83" y="0" width="93" height="67">
<path fill-rule="evenodd" clip-rule="evenodd" d="M83.334 0.524902H175.696V66.9171H83.334V0.524902Z" fill="white"/>
</mask>
<g mask="url(#mask1)">
<path fill-rule="evenodd" clip-rule="evenodd" d="M103.955 6.31176L98.4009 2.4238C97.5523 1.75901 97.9284 0.524414 98.9635 0.524414H161.673C172.408 0.524414 177.775 7.92466 174.951 15.6067L169.019 32.7735C166.289 40.8354 158.189 47.9476 147.645 47.9476H111.862L106.403 64.0724C105.743 65.9686 104.426 66.9168 102.448 66.9168H83.334C87.1021 56.2954 98.6822 22.5305 103.955 6.31176ZM115.065 18.451L120.432 23.2902L117.232 32.5815H145.573C146.515 32.5815 147.079 32.2037 147.364 31.4455L152.068 17.7862C152.068 17.6928 152.163 17.5979 152.068 17.3145C151.976 16.8381 151.6 16.5548 151.034 16.5548H115.819C114.784 16.5548 114.405 17.7862 115.065 18.451Z" fill="white"/>
</g>
<path fill-rule="evenodd" clip-rule="evenodd" d="M260.023 0.524902H288.553C289.399 2.89756 290.155 5.26916 291.001 7.54685C292.411 11.3393 293.92 15.7021 294.766 18.2631C293.92 22.3421 293.45 25.5637 292.789 28.2197C302.3 19.4946 311.716 10.6745 321.131 1.66611C321.886 0.906353 322.826 0.524902 323.954 0.524902H349C345.705 3.46737 340.151 8.49496 333.747 14.5635L302.205 43.6802L295.238 64.0729C294.578 65.8742 292.978 66.9173 291.188 66.9173H271.981C273.487 62.6484 275.371 56.9607 277.159 52.1215C278.195 49.3721 279.042 46.6211 280.078 43.6802C279.605 42.4488 279.137 41.0237 278.477 39.6008L274.616 29.6426C273.109 25.5637 271.509 21.5823 269.909 17.315C268.212 13.1406 266.804 9.53648 265.67 6.50061L259.456 2.42429C258.61 1.7595 258.985 0.524902 260.023 0.524902Z" fill="white"/>
<path fill-rule="evenodd" clip-rule="evenodd" d="M242.304 0.524902H187.093L187.064 0.605705L164.035 66.1748H222.716C234.006 66.1748 242.13 59.3292 245.3 51.1671L256.353 20.7822C259.932 10.9468 252.705 0.524902 242.304 0.524902ZM233.102 19.7176L224.093 46.9853C223.368 49.179 221.016 50.9588 218.838 50.9588H192.548L202.507 20.8121L199.182 17.813C198.462 17.0889 198.875 15.7457 200.005 15.7457H230.47C232.648 15.7457 233.825 17.5233 233.102 19.7176Z" fill="white"/>
<path fill-rule="evenodd" clip-rule="evenodd" d="M309.349 75.5484L305.483 86H302L305.866 75.5484H303.596L303.938 72.803H306.726L308.965 67H312.448L310.209 72.803H313.111L312.8 75.5484H309.349ZM325.259 84.5909C324.119 85.4124 322.626 85.8232 320.781 85.8232C319.641 85.8232 318.527 85.5788 317.439 85.09C316.35 84.6013 315.454 83.8629 314.749 82.8749C314.044 81.887 313.692 80.6962 313.692 79.3027C313.692 78.0963 313.956 76.916 314.485 75.7616C315.013 74.6073 315.853 73.6453 317.003 72.8758C318.154 72.1062 319.61 71.7214 321.372 71.7214C322.595 71.7214 323.746 71.9814 324.824 72.5014C325.902 73.0213 326.772 73.7753 327.436 74.7633C328.099 75.7512 328.431 76.9108 328.431 78.2419C328.431 79.3235 328.187 80.4466 327.7 81.6114C327.213 82.7761 326.399 83.7693 325.259 84.5909ZM320.875 82.9217C319.921 82.9217 319.071 82.6097 318.325 81.9858C317.578 81.3618 317.205 80.4154 317.205 79.1467C317.205 78.4395 317.35 77.7375 317.641 77.0408C317.931 76.344 318.377 75.7616 318.978 75.2937C319.579 74.8257 320.336 74.5917 321.248 74.5917C321.787 74.5917 322.336 74.7165 322.896 74.9661C323.455 75.2157 323.927 75.6212 324.311 76.1828C324.694 76.7444 324.886 77.4828 324.886 78.3979C324.886 79.1051 324.746 79.8019 324.466 80.4882C324.186 81.1746 323.746 81.7518 323.144 82.2198C322.543 82.6877 321.787 82.9217 320.875 82.9217ZM350 72.283L342.444 85.8856H342.226L339.179 77.1188L334.359 85.8544H334.142L329.851 72.283H333.271L335.479 79.0531L338.277 74.1861L337.624 72.283H340.64L342.879 79.3027L346.58 72.283H350Z" fill="#FEFEFE"/>
</svg>
